<svg id="Слой_1" data-name="Слой 1" xmlns="http://www.w3.org/2000/svg" viewBox="0 0 448.17 110.68">
    <defs>
        <style>.cls-1{fill:#7000e3}</style>
    </defs>
    <path class="cls-1"
          d="M68.82 71.9C63.15 47.29 45.19 8.73 38.53 1.7a5.73 5.73 0 00-8.15 0C23.72 8.73 5.76 47.29.09 71.9a3.1 3.1 0 003 3.85h9a4.16 4.16 0 003.63-2.13 21.48 21.48 0 0137.43 0 4.16 4.16 0 003.63 2.13h9a3.1 3.1 0 003.04-3.85zM34.46 51.21a8.41 8.41 0 118.4-8.4 8.4 8.4 0 01-8.4 8.4z"/>
    <path d="M34.41 75.75a8.37 8.37 0 00-8.4 8.4c0 5.35 4.58 18.87 8.4 26.53 3.82-7.66 8.4-21.18 8.4-26.53a8.37 8.37 0 00-8.4-8.4zm-28.62 8.4a6 6 0 00-5.73 6.22c0 4.52 2.81 10 5.73 15.25 2.92-5.21 5.73-10.73 5.73-15.25a6 6 0 00-5.73-6.22zm57.33 0a6 6 0 00-5.73 6.22c0 4.52 2.82 10 5.73 15.25 2.92-5.21 5.74-10.73 5.74-15.25a6 6 0 00-5.74-6.22z"
          fill="#fe4c04"/>
    <path class="cls-1"
          d="M130.47 31.26a17.91 17.91 0 00-6.31-4.09 23.68 23.68 0 00-8.91-1.58 27.86 27.86 0 00-10.39 2A27.34 27.34 0 0097.4 32a1.78 1.78 0 00-.11 2.6l4.63 4.68a1.79 1.79 0 002.37.14 14.23 14.23 0 014.11-2.31 16 16 0 015.18-.92q5.17 0 7.93 2.5a8.72 8.72 0 012.75 6.77h-6.93a38 38 0 00-8.88 1 22.69 22.69 0 00-7.22 3.05 15.59 15.59 0 00-4.88 5.09 13.83 13.83 0 00-1.79 7.13 14.91 14.91 0 001.13 5.92 13.25 13.25 0 003.21 4.63 14.07 14.07 0 004.92 3 18.12 18.12 0 006.33 1h24.26a1.78 1.78 0 001.78-1.78V48.36a32.58 32.58 0 00-1.29-10 17.82 17.82 0 00-4.43-7.1zm-6.29 36l-10.07.13c-4.45 0-8.06-3-8.06-6.65s3.61-6.65 8.06-6.65h10.07zm214.91-35.7a17 17 0 00-6-3.59 21.35 21.35 0 00-7-1.16 18.33 18.33 0 00-3.47.33 20.81 20.81 0 00-3.5 1 21.5 21.5 0 00-3.3 1.54 12.68 12.68 0 00-2.67 2v-1.86a1.78 1.78 0 00-1.78-1.74h-8.5a1.78 1.78 0 00-1.87 1.78v44.67a1.78 1.78 0 001.78 1.78h8.46a1.78 1.78 0 001.76-1.78V47.75c0-.3.1-1.44.1-1.82a9.82 9.82 0 0119.63 0 13.09 13.09 0 01.09 1.56v27a1.78 1.78 0 001.78 1.78h8.46a1.78 1.78 0 001.78-1.78V46.94a23.68 23.68 0 00-1.59-9.09 17.26 17.26 0 00-4.16-6.26zM448.17 48.8a23.21 23.21 0 00-46.42 0s-.57 6.68 2 12a28.62 28.62 0 005.46 8 26 26 0 0018.32 7.43 33.24 33.24 0 0010.14-1.54 31.94 31.94 0 008.06-4.06A1.78 1.78 0 00446 68l-5-5a1.79 1.79 0 00-2.29-.22 16.87 16.87 0 01-4.27 2.13 19.77 19.77 0 01-6.5 1.13 14.32 14.32 0 01-4.88-.79 13.77 13.77 0 01-4-2.18 12.93 12.93 0 01-3-3.25 16.28 16.28 0 01-1.87-4h31.91a1.78 1.78 0 001.9-1.54l.1-1c.08-.84.09-3.81 0-4.49zm-34.32-2.61c0-5.93 5.11-10.73 11.42-10.73s11.42 4.8 11.42 10.73zm-23.23 14.7A1.78 1.78 0 00388 61a14.31 14.31 0 01-3.51 2.86 12.6 12.6 0 01-6.5 1.71 12.31 12.31 0 01-5.26-1.17 14 14 0 01-4.33-3.13 15.25 15.25 0 01-2.92-16 14.46 14.46 0 017.3-7.76 12 12 0 015.22-1.16 12.1 12.1 0 016.38 1.59 15.66 15.66 0 013.27 2.6 1.78 1.78 0 002.55 0l5.53-5.64a1.77 1.77 0 000-2.5 22.74 22.74 0 00-7.4-4.82 27.72 27.72 0 00-10.48-2 25.56 25.56 0 00-10 2 24.56 24.56 0 00-8.06 5.38 25.8 25.8 0 00-5.39 8 25.1 25.1 0 00-2 10 25.58 25.58 0 002 10.09 24.5 24.5 0 0013.54 13.35 25.82 25.82 0 009.92 1.92 27.73 27.73 0 0010.85-2.17 24 24 0 007.63-5 1.78 1.78 0 000-2.51zM284.88 31.26a17.91 17.91 0 00-6.31-4.09 23.64 23.64 0 00-8.91-1.58 27.86 27.86 0 00-10.39 2 27.14 27.14 0 00-7.45 4.4 1.76 1.76 0 00-.11 2.6l4.62 4.68a1.82 1.82 0 002.37.14 14.23 14.23 0 014.11-2.31 16 16 0 015.18-.92q5.17 0 7.93 2.5a8.72 8.72 0 012.75 6.77h-6.93a38 38 0 00-8.88 1 22.79 22.79 0 00-7.22 3.05 15.59 15.59 0 00-4.88 5.09 13.83 13.83 0 00-1.76 7.12 14.91 14.91 0 001.13 5.92 13.25 13.25 0 003.21 4.63 14.07 14.07 0 004.92 3 18.13 18.13 0 006.34 1h24.25a1.78 1.78 0 001.78-1.78V48.36a32.58 32.58 0 00-1.29-10 17.82 17.82 0 00-4.46-7.1zm-6.29 36l-10.07.13c-4.45 0-8.06-3-8.06-6.65s3.61-6.65 8.06-6.65h10.07zM243 27.41h-9.26a1.78 1.78 0 00-1.74 1.21l-10.51 31.16L211 28.62a1.78 1.78 0 00-1.68-1.21H200a1.78 1.78 0 00-1.67 2.41l16.85 44.75a1.79 1.79 0 001.67 1.15h9.38a1.78 1.78 0 001.67-1.16l16.76-44.75a1.77 1.77 0 00-1.66-2.4zM189.35 9.92h-8.62a1.79 1.79 0 00-1.73 1.79v16.05c-3.18-2.16-9-2.24-11.1-2.24a19.89 19.89 0 00-8.59 2 24.62 24.62 0 00-7.43 5.38 26.8 26.8 0 00-5.22 8 25.63 25.63 0 00-1.92 10.1 27.49 27.49 0 001.7 9.67 25.22 25.22 0 004.8 8 23.21 23.21 0 007.34 5.51 21.38 21.38 0 009.35 2l21.41.08a1.78 1.78 0 001.78-1.78V11.7a1.78 1.78 0 00-1.77-1.78zM179 65s-11.1 2.42-17.62-2.77a14.49 14.49 0 01-3.66-5.32 17.06 17.06 0 01-1-6 17.7 17.7 0 011-6.1 13.79 13.79 0 012.85-4.71 12.51 12.51 0 014.31-3 13.92 13.92 0 015.49-1c6.07 0 8.07 1.73 8.63 2.11z"/>
</svg>